<?xml version="1.0" standalone="no"?>
<!DOCTYPE svg PUBLIC "-//W3C//DTD SVG 20010904//EN"
 "http://www.w3.org/TR/2001/REC-SVG-20010904/DTD/svg10.dtd">
<svg version="1.0" xmlns="http://www.w3.org/2000/svg"
 width="270.000000pt" height="362.000000pt" viewBox="0 0 270.000000 362.000000"
 preserveAspectRatio="xMidYMid meet">

<g transform="translate(0.000000,362.000000) scale(0.100000,-0.100000)"
fill="#000000" stroke="none">
<path d="M3 2418 c3 -1190 3 -1204 24 -1293 44 -181 93 -296 191 -445 64 -97
222 -259 332 -342 172 -129 473 -265 703 -318 l97 -22 98 22 c241 56 523 185
712 326 269 202 435 454 513 779 21 89 21 102 24 1293 l4 1202 -1351 0 -1351
0 4 -1202z m2664 0 c-4 -1281 -1 -1223 -67 -1420 -88 -263 -278 -503 -534
-675 -161 -108 -411 -216 -609 -264 -97 -23 -99 -23 -180 -6 -102 21 -245 68
-359 118 -413 181 -700 472 -817 827 -62 186 -61 163 -61 1429 l0 1153 1315 0
1316 0 -4 -1162z"/>
<path d="M90 3462 c0 -64 16 -96 46 -90 16 3 19 13 22 76 2 45 -1 72 -8 72 -6
0 -10 -27 -10 -66 0 -41 -4 -63 -10 -59 -5 3 -10 33 -10 66 0 46 -3 59 -15 59
-12 0 -15 -13 -15 -58z"/>
<path d="M180 3445 c0 -79 19 -108 21 -32 l1 42 11 -42 c5 -25 16 -43 23 -43
11 0 14 18 14 75 0 43 -4 75 -10 75 -5 0 -10 -15 -11 -32 l-1 -33 -9 33 c-5
17 -16 32 -24 32 -12 0 -15 -16 -15 -75z"/>
<path d="M270 3445 c0 -43 4 -75 10 -75 6 0 10 32 10 75 0 43 -4 75 -10 75 -6
0 -10 -32 -10 -75z"/>
<path d="M303 3504 c3 -11 9 -43 12 -71 12 -92 38 -81 52 21 l8 61 5 -70 c5
-64 7 -70 29 -73 13 -2 28 1 34 7 8 8 5 11 -11 11 -17 0 -22 6 -22 25 0 16 6
25 15 25 8 0 15 5 15 10 0 6 -7 10 -15 10 -8 0 -15 9 -15 20 0 11 7 20 15 20
8 0 15 5 15 10 0 6 -20 10 -44 10 -43 0 -43 0 -51 -42 l-8 -43 -6 39 c-3 22
-12 41 -20 44 -9 3 -11 -2 -8 -14z"/>
<path d="M460 3445 c0 -43 4 -75 10 -75 6 0 10 16 10 36 0 21 4 33 10 29 6 -3
10 -19 10 -36 0 -18 5 -29 13 -29 10 0 12 10 7 38 -3 20 -2 47 3 59 12 28 -6
53 -39 53 -23 0 -24 -3 -24 -75z m40 35 c0 -11 -4 -20 -10 -20 -5 0 -10 9 -10
20 0 11 5 20 10 20 6 0 10 -9 10 -20z"/>
<path d="M547 3513 c-15 -14 -6 -48 19 -74 14 -15 23 -32 20 -38 -11 -17 -23
-13 -31 12 -6 19 -8 20 -12 4 -7 -27 4 -47 25 -47 45 0 54 68 12 90 -21 11
-28 40 -10 40 6 0 10 -7 10 -15 0 -17 16 -20 24 -6 17 27 -35 57 -57 34z"/>
<path d="M620 3445 c0 -43 4 -75 10 -75 6 0 10 32 10 75 0 43 -4 75 -10 75 -6
0 -10 -32 -10 -75z"/>
<path d="M652 3448 c3 -69 4 -73 27 -76 34 -5 51 22 51 78 0 53 -13 70 -52 70
l-29 0 3 -72z m48 -3 c0 -30 -4 -55 -10 -55 -5 0 -10 25 -10 55 0 30 5 55 10
55 6 0 10 -25 10 -55z"/>
<path d="M752 3456 c-15 -77 -15 -86 -2 -86 6 0 10 7 10 15 0 20 20 19 36 -2
27 -38 27 -9 -1 115 -10 43 -31 23 -43 -42z m25 -18 c-3 -7 -5 -2 -5 12 0 14
2 19 5 13 2 -7 2 -19 0 -25z"/>
<path d="M830 3445 c0 -72 1 -75 23 -75 35 0 47 19 47 71 0 65 -7 79 -41 79
l-29 0 0 -75z m45 0 c0 -30 -5 -50 -12 -52 -10 -4 -13 11 -13 52 0 41 3 56 13
53 7 -3 12 -23 12 -53z"/>
<path d="M966 3478 c-4 -24 -9 -58 -12 -75 -4 -21 -2 -33 5 -33 6 0 11 7 11
15 0 8 7 15 15 15 8 0 15 -7 15 -15 0 -8 7 -15 16 -15 10 0 14 6 11 18 -3 9
-8 35 -12 57 -9 60 -15 75 -29 75 -8 0 -16 -18 -20 -42z m21 -40 c-3 -7 -5 -2
-5 12 0 14 2 19 5 13 2 -7 2 -19 0 -25z"/>
<path d="M1040 3450 c0 -75 14 -95 49 -73 19 12 29 143 11 143 -5 0 -10 -19
-10 -42 0 -24 -3 -53 -6 -65 -11 -40 -24 -14 -24 48 0 33 -4 59 -10 59 -6 0
-10 -30 -10 -70z"/>
<path d="M1120 3510 c0 -5 7 -10 15 -10 12 0 15 -14 15 -65 0 -37 4 -65 10
-65 6 0 10 28 10 65 0 51 3 65 15 65 8 0 15 5 15 10 0 6 -18 10 -40 10 -22 0
-40 -4 -40 -10z"/>
<path d="M1211 3501 c-14 -25 -14 -72 -1 -106 7 -19 16 -26 32 -23 48 7 49
139 1 146 -14 2 -26 -4 -32 -17z m39 -57 c0 -34 -4 -53 -10 -49 -5 3 -10 28
-10 56 0 27 5 49 10 49 6 0 10 -25 10 -56z"/>
<path d="M1290 3446 c0 -80 19 -109 21 -33 l1 42 11 -43 c7 -31 15 -42 26 -40
13 3 16 17 16 72 0 47 -4 71 -12 74 -9 2 -13 -8 -14 -30 l-1 -33 -7 30 c-3 17
-14 31 -24 33 -15 3 -17 -6 -17 -72z"/>
<path d="M1386 3505 c-9 -24 -7 -108 3 -123 4 -8 19 -12 32 -10 23 3 24 7 24
73 0 68 -1 70 -26 73 -17 2 -29 -3 -33 -13z m42 -55 c-4 -60 -22 -71 -26 -16
-4 43 2 66 18 66 7 0 10 -19 8 -50z"/>
<path d="M1470 3445 c0 -43 4 -75 10 -75 6 0 11 15 11 33 l1 32 7 -30 c8 -40
22 -38 35 5 l10 35 4 -38 c6 -63 22 -31 22 44 0 61 -2 69 -19 69 -15 0 -20
-10 -27 -47 l-7 -48 -10 48 c-6 29 -14 47 -23 47 -11 0 -14 -18 -14 -75z"/>
<path d="M1591 3457 c-14 -78 -14 -87 -1 -87 6 0 10 7 10 15 0 8 7 15 15 15 8
0 15 -7 15 -15 0 -8 5 -15 11 -15 11 0 5 102 -8 136 -13 33 -31 12 -42 -49z
m26 -19 c-3 -7 -5 -2 -5 12 0 14 2 19 5 13 2 -7 2 -19 0 -25z"/>
<path d="M1702 3448 c3 -69 4 -73 27 -76 34 -5 51 22 51 78 0 53 -13 70 -52
70 l-29 0 3 -72z m48 3 c0 -28 -4 -53 -10 -56 -6 -4 -10 15 -10 49 0 31 5 56
10 56 6 0 10 -22 10 -49z"/>
<path d="M1790 3445 l0 -75 30 0 c34 0 40 15 10 23 -11 3 -20 13 -20 22 0 9 9
19 20 22 11 3 20 9 20 14 0 5 -9 9 -20 9 -13 0 -20 7 -20 20 0 13 7 20 20 20
11 0 20 5 20 10 0 6 -13 10 -30 10 l-30 0 0 -75z"/>
<path d="M1904 3506 c-3 -7 -4 -40 -2 -72 l3 -59 37 -3 36 -3 -5 63 c-2 35 -6
69 -8 76 -6 16 -54 15 -61 -2z m41 -59 c0 -65 -19 -64 -23 2 -2 40 0 52 10 49
8 -3 13 -22 13 -51z"/>
<path d="M1980 3462 c0 -64 16 -96 46 -90 16 3 19 13 22 76 2 45 -1 72 -8 72
-6 0 -10 -27 -10 -66 0 -41 -4 -63 -10 -59 -5 3 -10 33 -10 66 0 46 -3 59 -15
59 -12 0 -15 -13 -15 -58z"/>
<path d="M2070 3445 l0 -75 30 0 c34 0 40 15 10 23 -11 3 -20 13 -20 22 0 9 9
19 20 22 11 3 20 9 20 13 0 4 -9 10 -20 13 -11 3 -20 12 -20 21 0 9 8 16 20
16 11 0 20 5 20 10 0 6 -13 10 -30 10 l-30 0 0 -75z"/>
<path d="M2140 3446 c0 -44 4 -76 10 -76 6 0 10 16 10 36 0 45 24 42 28 -4 6
-63 22 -30 19 41 l-2 72 -32 3 -33 3 0 -75z m50 34 c0 -11 -7 -20 -15 -20 -8
0 -15 9 -15 20 0 11 7 20 15 20 8 0 15 -9 15 -20z"/>
<path d="M2222 3448 c3 -71 4 -73 31 -76 15 -2 27 1 27 7 0 6 -7 11 -15 11 -9
0 -15 9 -15 25 0 16 6 25 15 25 8 0 15 5 15 10 0 6 -7 10 -15 10 -8 0 -15 9
-15 20 0 11 7 20 15 20 8 0 15 5 15 10 0 6 -14 10 -30 10 l-31 0 3 -72z"/>
<path d="M2290 3510 c0 -5 7 -10 15 -10 12 0 15 -14 15 -65 0 -37 4 -65 10
-65 6 0 10 28 10 65 0 51 3 65 15 65 8 0 15 5 15 10 0 6 -18 10 -40 10 -22 0
-40 -4 -40 -10z"/>
<path d="M2396 3508 c-11 -35 -25 -132 -21 -136 3 -3 12 3 20 14 15 19 15 19
30 0 23 -30 26 -15 13 63 -8 46 -17 71 -25 71 -8 0 -15 -6 -17 -12z m21 -70
c-3 -8 -6 -5 -6 6 -1 11 2 17 5 13 3 -3 4 -12 1 -19z"/>
<path d="M2460 3445 c0 -57 3 -76 13 -73 6 3 13 19 15 36 4 40 22 32 22 -9 0
-16 4 -29 10 -29 6 0 9 30 7 73 l-2 72 -32 3 -33 3 0 -76z m50 35 c0 -11 -4
-20 -10 -20 -5 0 -10 9 -10 20 0 11 5 20 10 20 6 0 10 -9 10 -20z"/>
<path d="M2550 3501 c-13 -25 -13 -72 0 -105 10 -28 38 -34 58 -14 12 12 16
95 6 122 -9 22 -51 20 -64 -3z m40 -57 c0 -34 -4 -53 -10 -49 -5 3 -10 28 -10
56 0 27 5 49 10 49 6 0 10 -25 10 -56z"/>
<path d="M332 2263 l3 -1038 26 -86 c51 -167 122 -291 235 -405 169 -171 410
-308 664 -378 l90 -25 88 24 c49 13 141 46 206 74 376 161 609 401 698 716
l23 80 3 1038 3 1037 -1021 0 -1021 0 3 -1037z m1838 852 c-143 -144 -234
-216 -249 -199 -4 5 -23 68 -41 139 -18 72 -36 136 -40 144 -5 8 -22 -48 -43
-133 -19 -81 -38 -150 -40 -152 -3 -3 -35 13 -72 36 -37 23 -69 40 -71 38 -2
-2 16 -38 40 -80 l44 -76 -127 -32 c-181 -45 -203 -51 -199 -55 2 -2 69 -18
148 -35 80 -17 151 -33 158 -35 27 -9 -53 -106 -248 -300 -125 -125 -200 -193
-200 -182 0 11 -14 24 -35 33 -21 8 -40 25 -45 40 -6 14 -10 79 -10 144 0 138
-3 143 -97 156 -58 7 -59 9 -46 87 l6 39 66 -7 c128 -13 134 -15 146 -65 12
-51 31 -63 41 -26 4 17 13 26 25 26 16 0 19 8 19 44 0 42 -2 45 -35 56 l-35
12 19 24 c66 84 10 242 -97 274 l-37 12 3 57 c3 51 0 61 -24 90 -25 30 -32 33
-71 28 -53 -6 -85 -26 -124 -80 -17 -23 -42 -48 -56 -56 -24 -12 -27 -11 -50
18 -29 37 -101 81 -131 81 -12 0 -32 -10 -44 -22 -20 -20 -33 -23 -100 -23
-80 0 -103 -14 -47 -28 31 -8 65 -29 122 -74 16 -13 40 -23 53 -23 13 0 42 -6
64 -12 40 -13 40 -13 40 -65 0 -29 -5 -64 -12 -78 -11 -24 -9 -29 12 -45 l25
-19 -22 -20 c-25 -24 -39 -95 -27 -143 4 -18 7 -78 7 -133 -1 -90 -3 -101 -23
-117 -16 -13 -21 -25 -17 -40 4 -13 0 -29 -8 -38 -13 -14 -10 -22 21 -68 19
-29 38 -52 43 -52 5 0 7 -9 4 -19 -3 -13 2 -21 16 -26 16 -5 21 -15 21 -39 0
-31 2 -32 30 -28 20 3 37 -2 49 -12 16 -15 19 -15 31 -1 7 9 29 15 51 15 26 0
39 4 39 14 0 7 13 16 29 19 19 4 32 15 41 36 12 31 13 31 89 31 l76 0 -190
-192 c-515 -523 -660 -668 -667 -668 -5 0 -8 439 -8 975 l0 975 977 0 978 0
-145 -145z m154 -1900 c-79 -392 -395 -684 -893 -829 l-83 -24 -110 35 c-145
46 -250 92 -378 167 -85 49 -127 83 -220 176 -73 73 -129 139 -153 180 -47 81
-91 195 -108 278 l-13 63 639 640 c592 593 728 721 746 701 4 -4 24 -78 44
-166 21 -88 41 -152 45 -145 4 8 24 83 45 167 20 83 39 152 41 152 2 0 35 -20
74 -45 38 -25 70 -42 70 -37 0 4 -18 36 -39 72 -22 36 -37 68 -33 71 4 4 32
12 62 18 126 26 240 54 236 58 -2 3 -73 22 -156 43 -83 21 -154 40 -157 43
-11 12 84 131 214 266 l138 144 3 -974 c2 -865 0 -983 -14 -1054z m-1575 1898
c50 -42 53 -60 6 -32 -32 19 -36 19 -51 5 -30 -31 -84 -14 -84 25 0 25 35 47
65 42 13 -3 42 -21 64 -40z m276 -24 c4 -12 3 -25 -2 -29 -11 -11 -56 26 -48
40 11 18 43 11 50 -11z m-269 -24 c16 -12 16 -14 3 -15 -9 0 -22 7 -29 15 -16
19 0 19 26 0z m224 -36 c0 -20 -24 -26 -35 -9 -3 6 1 7 9 4 17 -7 22 11 6 21
-5 3 -10 11 -10 17 0 7 6 6 15 -2 8 -7 15 -21 15 -31z m850 -106 l0 -138 -27
27 -27 27 24 111 c14 60 26 110 27 110 2 0 3 -62 3 -137z m-675 88 c69 -32
105 -86 105 -157 0 -38 -19 -83 -45 -104 -24 -20 -29 -5 -11 40 22 55 20 91
-7 131 -24 36 -115 89 -153 89 -13 0 -26 5 -29 10 -11 18 97 11 140 -9z m-205
-37 c0 -20 -29 -29 -43 -14 -9 10 -7 11 11 5 24 -7 29 4 10 24 -11 10 -10 11
5 6 9 -4 17 -14 17 -21z m126 -39 c41 -27 57 -61 51 -111 -5 -51 -10 -59 -32
-51 -9 4 -15 19 -15 37 0 47 -26 99 -60 118 -41 23 -40 44 1 32 17 -5 42 -16
55 -25z m-141 -25 c0 -8 -9 -15 -20 -16 -15 -1 -16 0 -2 3 9 3 17 8 17 13 0 5
-8 11 -17 14 -14 4 -14 4 2 3 11 -1 20 -9 20 -17z m-84 0 c13 -7 19 -21 19
-44 0 -18 9 -44 19 -58 18 -23 18 -26 3 -57 l-16 -34 -17 22 c-9 11 -23 21
-31 21 -20 0 -38 21 -38 43 0 10 -9 21 -20 24 -18 5 -18 7 -5 26 8 12 15 32
15 44 0 18 6 23 26 23 14 0 34 -5 45 -10z m889 -63 c0 -18 -22 -1 -42 33 l-22
35 32 -29 c18 -17 32 -34 32 -39z m215 43 c-10 -11 -21 -18 -23 -15 -3 3 3 12
14 20 27 20 30 18 9 -5z m-965 -61 c0 -10 -4 -19 -9 -19 -9 0 -31 54 -31 74 1
19 40 -35 40 -55z m-50 31 c0 -5 3 -15 6 -23 8 -22 -28 -31 -43 -11 -22 30
-16 52 12 46 14 -2 25 -8 25 -12z m1105 -75 l90 -23 -133 -1 c-139 -1 -140 -1
-104 41 9 11 23 16 36 12 12 -3 62 -16 111 -29z m-1060 -4 c3 -5 -5 -18 -18
-28 -30 -23 -41 -45 -57 -111 -7 -30 -18 -56 -25 -59 -22 -8 -54 15 -80 57
-14 22 -32 40 -40 40 -9 0 -15 9 -15 23 0 37 14 49 46 41 39 -9 54 -22 54 -49
0 -39 13 -36 38 7 46 80 52 88 72 88 10 0 21 -4 25 -9z m163 -47 c70 -19 127
-36 128 -37 1 -1 5 -12 8 -24 5 -17 3 -23 -8 -23 -8 0 -19 -8 -24 -17 -8 -13
-11 -11 -17 15 -3 18 -10 34 -13 36 -4 2 -54 10 -111 17 -94 11 -105 11 -116
-4 -13 -18 -45 -23 -45 -9 0 8 61 82 68 82 2 0 60 -16 130 -36z m625 -15 l-31
-32 -114 28 c-62 15 -115 29 -117 31 -2 2 63 4 145 4 l149 0 -32 -31z m113
-174 c-15 -63 -30 -115 -32 -115 -2 0 -4 66 -4 147 l0 148 32 -32 32 -33 -28
-115z m105 92 c12 -22 12 -22 -10 -3 -11 11 -21 23 -21 28 0 14 19 -1 31 -25z
m-1208 -7 c4 -15 0 -20 -14 -20 -12 0 -19 7 -19 20 0 11 6 20 14 20 7 0 16 -9
19 -20z m187 5 c0 -8 -9 -15 -20 -15 -20 0 -26 11 -13 23 12 13 33 7 33 -8z
m770 6 c0 -5 -12 -17 -27 -26 l-28 -18 24 27 c26 28 31 31 31 17z m-626 -117
c13 -12 16 -40 16 -137 0 -95 4 -128 16 -145 15 -21 14 -22 -15 -22 -29 0 -31
3 -31 35 0 19 -9 49 -20 67 -13 22 -20 51 -20 86 0 28 -2 52 -5 52 -3 0 -43
-9 -89 -21 l-84 -21 -11 -43 c-6 -23 -13 -49 -16 -57 -4 -11 9 -19 52 -32 32
-10 65 -28 74 -39 16 -22 16 -22 -35 -19 -28 2 -81 -1 -119 -6 -86 -11 -92 -5
-82 85 6 60 11 72 40 98 18 17 38 29 45 27 6 -2 18 6 27 17 12 17 21 21 43 16
23 -5 30 -2 35 14 4 13 15 21 29 21 13 0 31 9 41 20 22 25 86 27 109 4z m-84
-121 c0 -16 11 -52 25 -81 25 -54 32 -106 16 -116 -4 -3 -15 16 -23 42 -15 44
-17 47 -47 44 -17 -2 -53 4 -80 13 l-48 16 11 39 c9 36 15 42 51 51 22 5 45
12 50 14 31 11 45 4 45 -22z m-6 -149 c4 -10 1 -14 -6 -12 -15 5 -23 28 -10
28 5 0 13 -7 16 -16z m20 -61 c10 -26 0 -25 -18 1 -13 20 -13 24 -2 20 8 -3
17 -13 20 -21z m149 0 c-18 -2 -48 -2 -65 0 -18 2 -4 4 32 4 36 0 50 -2 33 -4z"/>
<path d="M490 2613 c-8 -3 -28 -17 -43 -32 -85 -78 -75 -193 22 -258 64 -43
166 -22 215 44 28 37 33 120 11 167 -25 53 -68 79 -134 83 -31 1 -63 0 -71 -4z"/>
<path d="M1269 1771 c-13 -17 -28 -31 -34 -31 -6 0 -23 -13 -38 -28 -24 -25
-27 -36 -27 -93 0 -49 6 -74 24 -106 l24 -42 -19 -61 c-23 -76 -24 -174 -3
-252 16 -55 16 -61 -2 -101 -10 -23 -31 -54 -48 -68 -45 -39 -40 -77 17 -133
26 -25 56 -50 66 -56 37 -19 105 -11 169 21 61 30 61 30 113 15 76 -23 206
-21 279 4 67 23 96 15 107 -28 12 -50 72 -66 116 -32 14 11 33 20 42 20 9 0
32 15 51 34 32 32 34 39 34 98 0 49 -6 77 -30 127 -28 59 -30 67 -18 100 18
51 15 206 -5 258 -15 40 -15 44 3 80 74 148 75 158 22 214 -52 56 -98 61 -206
24 -77 -27 -79 -27 -135 -11 -70 20 -178 20 -248 2 -67 -18 -110 -6 -138 38
-16 24 -29 32 -57 34 -31 3 -40 -2 -59 -27z m778 -47 c22 -6 21 -7 -7 -31 -19
-16 -30 -34 -30 -51 0 -28 35 -72 57 -72 17 0 17 -31 0 -54 -13 -17 -15 -16
-35 16 -25 39 -106 119 -142 138 -22 12 -22 13 -4 23 50 28 121 42 161 31z
m-773 -39 c30 -30 65 -32 99 -5 26 20 47 26 47 13 -1 -5 -23 -24 -51 -43 -27
-19 -68 -59 -91 -87 -22 -29 -42 -53 -45 -53 -11 0 -33 75 -33 115 0 32 6 51
20 65 25 25 24 25 54 -5z m480 12 l39 -12 -63 -42 -63 -41 -60 39 c-33 21 -64
39 -69 39 -18 0 -7 19 15 23 45 9 163 5 201 -6z m-194 -65 c70 -40 80 -59 40
-78 -65 -30 -89 -33 -115 -12 -18 14 -42 20 -86 21 l-62 2 -12 -34 c-6 -19
-17 -37 -23 -39 -17 -5 -15 -22 3 -22 8 0 15 -5 15 -11 0 -14 47 -59 60 -59 5
0 7 7 3 16 -5 15 -3 15 20 -1 15 -9 27 -20 27 -22 0 -3 -25 -32 -56 -65 -30
-33 -75 -90 -99 -125 l-43 -65 -11 52 c-29 134 8 269 102 376 39 45 125 104
152 104 11 0 49 -17 85 -38z m385 -48 c92 -88 144 -230 129 -350 -8 -66 -18
-75 -39 -34 -28 54 -172 225 -256 304 -47 45 -78 81 -73 86 5 5 36 25 68 44
58 35 59 35 89 18 17 -9 54 -40 82 -68z m-152 -137 c88 -87 172 -190 230 -283
l26 -42 -22 -43 c-45 -94 -174 -195 -276 -218 -39 -8 -41 -8 -41 14 0 13 5 27
10 30 6 3 10 18 10 34 0 19 13 40 46 71 25 25 52 60 59 78 8 17 18 32 22 32
13 0 93 77 93 89 0 6 -13 17 -29 25 -16 9 -43 34 -61 56 -23 29 -39 40 -59 40
-15 0 -36 9 -46 20 -10 11 -22 17 -27 14 -5 -3 -29 -3 -53 0 -40 6 -44 10 -60
54 -10 26 -22 52 -27 58 -6 8 6 24 34 47 33 27 46 33 60 26 10 -5 59 -51 111
-102z m-426 51 c-3 -8 -6 -5 -6 6 -1 11 2 17 5 13 3 -3 4 -12 1 -19z m168 -8
c-10 -11 -23 -20 -28 -20 -6 0 -2 9 8 20 10 11 23 20 28 20 6 0 2 -9 -8 -20z
m53 -138 c17 -17 19 -29 15 -81 -6 -58 -5 -61 26 -88 29 -26 31 -32 31 -96 0
-44 -5 -76 -15 -91 -13 -20 -14 -31 -4 -70 6 -26 15 -49 20 -52 5 -3 9 -10 9
-16 0 -7 -23 -9 -69 -6 -126 9 -274 103 -331 212 l-23 43 40 59 c23 32 71 94
108 138 l68 79 53 -6 c33 -3 60 -13 72 -25z m522 -420 c0 -43 -5 -58 -25 -77
-31 -32 -36 -31 -60 8 -24 39 -75 49 -106 21 -11 -9 -22 -14 -27 -10 -4 4 7
17 23 29 43 30 103 96 128 141 l22 38 22 -48 c15 -31 23 -68 23 -102z m-842
78 c18 -28 60 -72 93 -98 l61 -47 -43 -20 c-50 -22 -130 -25 -153 -6 -14 12
-13 17 9 43 32 38 32 62 -1 94 -20 21 -24 32 -19 55 4 16 10 29 13 29 4 0 22
-23 40 -50z"/>
<path d="M2445 2775 c-20 -19 -25 -34 -25 -75 l0 -50 110 0 c91 0 110 3 110
15 0 12 -17 15 -96 15 l-95 0 3 36 c4 44 29 65 56 48 9 -6 18 -21 20 -33 2
-11 7 -21 12 -21 22 0 99 57 100 73 0 15 -4 15 -38 -7 l-38 -24 -23 24 c-30
31 -65 31 -96 -1z"/>
<path d="M60 2729 c0 -44 3 -60 13 -57 6 3 13 23 15 46 3 41 4 42 38 42 34 0
34 0 34 -45 0 -33 4 -45 15 -45 11 0 15 12 15 45 0 45 0 45 35 45 35 0 35 0
35 -45 0 -25 5 -45 10 -45 6 0 10 27 10 60 l0 60 -110 0 -110 0 0 -61z"/>
<path d="M60 2525 c0 -76 32 -120 90 -125 53 -5 73 1 101 29 25 26 29 37 29
85 l0 56 -110 0 -110 0 0 -45z m192 -20 c-4 -54 -31 -80 -83 -80 -52 0 -79 30
-79 87 l0 39 83 -3 82 -3 -3 -40z"/>
<path d="M2481 2557 c-85 -44 -83 -162 3 -204 95 -45 194 51 151 146 -28 62
-96 88 -154 58z m108 -34 c12 -10 24 -35 28 -55 5 -32 1 -41 -25 -68 -37 -37
-76 -39 -116 -6 -24 18 -30 31 -30 61 0 70 89 112 143 68z"/>
<path d="M87 2299 c-28 -16 -40 -58 -26 -91 14 -34 57 -48 152 -48 53 0 67 3
67 15 0 12 -15 15 -74 15 -93 0 -126 11 -126 43 0 39 18 47 112 47 72 0 88 3
88 15 0 12 -16 15 -87 15 -49 0 -96 -5 -106 -11z"/>
<path d="M2420 2240 c0 -5 39 -11 88 -12 l87 -3 -87 -54 c-49 -29 -88 -60 -88
-67 0 -11 24 -14 110 -14 67 0 110 4 110 10 0 6 -36 10 -87 10 l-88 0 88 56
c48 31 87 62 87 70 0 11 -22 14 -110 14 -64 0 -110 -4 -110 -10z"/>
<path d="M108 2063 c-56 -36 -71 -123 -28 -169 40 -42 57 -23 20 23 -11 14
-20 37 -20 50 0 36 51 83 90 83 39 0 90 -47 90 -83 0 -13 -9 -36 -20 -50 -11
-14 -20 -33 -20 -43 0 -16 2 -16 21 2 36 31 52 80 39 118 -23 72 -112 108
-172 69z"/>
<path d="M2449 1961 c-28 -28 -33 -46 -30 -101 3 -39 63 -90 107 -90 82 0 138
72 114 145 -17 51 -53 75 -112 75 -41 0 -54 -5 -79 -29z m149 -27 c64 -73 -20
-165 -112 -123 -45 21 -56 86 -23 128 31 38 99 36 135 -5z"/>
<path d="M103 1760 c-49 -29 -62 -98 -28 -151 49 -76 177 -60 205 26 34 103
-81 184 -177 125z m134 -36 c21 -21 24 -32 19 -62 -7 -46 -38 -72 -85 -72 -40
1 -62 14 -79 47 -18 32 -15 48 14 82 34 41 92 44 131 5z"/>
<path d="M2420 1665 c0 -11 12 -15 50 -15 l50 0 0 -44 0 -45 -47 -3 c-26 -2
-48 -9 -51 -15 -3 -10 23 -13 107 -13 92 0 111 3 111 15 0 11 -12 15 -50 15
l-50 0 0 45 0 45 50 0 c38 0 50 4 50 15 0 12 -19 15 -110 15 -91 0 -110 -3
-110 -15z"/>
<path d="M210 1384 c-8 -1 -45 -6 -82 -9 -66 -6 -68 -7 -68 -35 0 -47 12 -90
25 -90 8 0 11 15 7 50 l-5 50 36 0 c34 0 35 -1 41 -45 5 -28 12 -45 21 -45 10
0 12 11 8 41 -6 45 4 59 45 59 19 0 22 -5 22 -39 0 -36 14 -61 26 -48 3 3 3
30 -1 61 -7 52 -9 56 -34 55 -14 -1 -33 -3 -41 -5z"/>
<path d="M2610 1304 l0 -37 -82 7 c-46 4 -91 9 -100 12 -12 4 -18 0 -18 -10 0
-9 12 -17 33 -21 40 -7 181 -23 184 -21 1 1 5 25 9 54 6 44 4 52 -10 52 -12 0
-16 -9 -16 -36z"/>
<path d="M171 1179 c-66 -22 -90 -34 -83 -41 8 -8 34 -3 91 14 l81 26 -43 -50
c-87 -102 -96 -114 -88 -126 11 -19 205 39 210 63 2 12 -2 16 -10 13 -59 -22
-151 -49 -154 -46 -2 2 25 35 60 73 64 70 81 106 48 104 -10 0 -60 -14 -112
-30z"/>
<path d="M2396 1178 c-3 -7 -9 -28 -15 -47 -6 -19 -11 -39 -11 -46 0 -6 44
-22 98 -34 53 -13 102 -26 108 -28 11 -4 41 103 31 113 -11 12 -26 -7 -33 -42
-6 -34 -8 -36 -37 -30 -40 8 -40 8 -28 52 6 20 8 41 5 46 -11 17 -22 7 -28
-24 -10 -52 -19 -60 -50 -48 -26 9 -27 13 -20 55 4 31 3 45 -5 45 -6 0 -13 -6
-15 -12z"/>
<path d="M2306 932 c-13 -13 -2 -23 64 -58 39 -20 69 -39 66 -41 -2 -2 -48 -7
-102 -11 -132 -9 -133 -22 -12 -86 98 -53 101 -53 106 -37 2 5 -30 27 -70 47
-66 34 -71 38 -48 45 14 4 59 7 101 8 61 1 78 4 83 17 4 9 5 18 4 19 -33 23
-188 101 -192 97z"/>
<path d="M314 863 c-49 -31 -91 -57 -93 -59 -7 -6 49 -84 59 -84 14 0 12 22
-5 44 -8 11 -15 23 -15 27 0 3 36 28 80 55 44 27 80 52 80 56 0 21 -26 12
-106 -39z"/>
<path d="M400 714 c-111 -65 -104 -60 -95 -74 4 -7 17 -4 39 9 l32 20 37 -30
c32 -27 35 -33 26 -56 -11 -29 -4 -62 10 -47 5 5 23 53 41 107 29 90 33 128
13 127 -4 -1 -51 -26 -103 -56z m74 -29 c-15 -44 -16 -44 -40 -29 -13 9 -24
20 -24 25 0 6 61 45 77 49 1 0 -5 -20 -13 -45z"/>
<path d="M2147 722 c-20 -21 -37 -40 -37 -43 0 -3 36 -38 81 -79 l81 -73 40
40 c25 25 38 46 33 53 -5 8 -18 2 -41 -21 -33 -32 -34 -32 -56 -13 -13 10 -25
20 -27 22 -3 1 10 17 28 36 43 45 22 61 -23 17 l-32 -31 -24 25 -24 25 32 33
c28 29 33 47 12 47 -3 0 -23 -17 -43 -38z"/>
<path d="M648 478 c-15 -62 -23 -116 -19 -121 4 -4 51 24 106 63 69 49 93 71
82 76 -9 3 -42 -14 -84 -44 -37 -28 -69 -47 -70 -44 -2 4 6 43 16 87 19 76 19
95 2 95 -4 0 -19 -51 -33 -112z"/>
<path d="M1986 571 c-3 -5 -1 -32 4 -61 6 -29 10 -54 10 -57 0 -2 -23 8 -51
23 -29 14 -58 23 -68 19 -11 -5 6 -18 62 -46 42 -22 77 -43 77 -47 1 -4 9 -17
20 -30 31 -37 43 -16 16 26 -14 22 -29 67 -36 110 -11 67 -21 85 -34 63z"/>
<path d="M857 408 c-54 -86 -77 -125 -77 -131 0 -3 21 -17 46 -32 57 -33 85
-20 30 15 -41 25 -43 30 -18 60 l18 22 34 -20 c31 -20 50 -21 50 -4 0 4 -16
16 -35 26 -40 22 -41 26 -16 57 l18 23 36 -21 c33 -20 47 -20 47 -2 0 7 -83
59 -94 59 -3 0 -20 -24 -39 -52z"/>
<path d="M1643 376 c-29 -14 -53 -28 -53 -32 0 -4 23 -49 51 -100 l52 -93 38
19 c85 44 105 123 47 185 -44 46 -72 51 -135 21z m108 -35 c41 -41 40 -90 -2
-125 -17 -14 -34 -26 -39 -26 -4 0 -26 33 -48 73 l-40 72 31 17 c45 24 64 22
98 -11z"/>
<path d="M1020 295 c-44 -95 -50 -116 -35 -122 6 -2 28 37 49 87 l38 91 32
-19 c53 -31 42 -88 -16 -80 -25 4 -28 1 -28 -21 0 -52 13 -100 28 -106 12 -4
14 2 8 45 -6 46 -5 50 14 50 27 0 60 35 60 64 0 32 -27 62 -73 81 l-38 16 -39
-86z"/>
<path d="M1474 316 c-13 -33 -51 -216 -46 -221 13 -12 22 -2 28 31 7 38 9 39
66 49 34 5 38 3 53 -25 8 -16 22 -30 31 -30 11 0 0 28 -40 103 -53 98 -80 125
-92 93z m46 -66 c26 -50 26 -50 -11 -50 -30 0 -31 2 -25 31 3 17 6 38 6 45 0
23 9 16 30 -26z"/>
<path d="M1211 204 c-12 -58 -20 -108 -18 -111 3 -2 30 -7 60 -10 42 -4 62 -1
86 13 57 34 66 127 17 173 -21 20 -77 40 -112 41 -6 0 -21 -48 -33 -106z m127
40 c36 -40 24 -111 -23 -132 -34 -16 -97 -4 -91 17 3 9 10 47 17 84 l11 68 32
-6 c17 -4 41 -18 54 -31z"/>
</g>
</svg>
